<svg width="800" height="450" viewBox="0 0 800 450" xmlns="http://www.w3.org/2000/svg">
  <defs>
    <linearGradient id="bg6" x1="0" y1="0" x2="1" y2="1">
      <stop offset="0%" stop-color="#e6efff"/>
      <stop offset="100%" stop-color="#b6d2ff"/>
    </linearGradient>
    <linearGradient id="rise6" x1="0" y1="0" x2="0" y2="1">
      <stop offset="0%" stop-color="#164d8c"/>
      <stop offset="100%" stop-color="#3f7ac3"/>
    </linearGradient>
  </defs>
  <rect width="800" height="450" rx="34" fill="url(#bg6)"/>
  <rect x="100" y="100" width="600" height="260" rx="32" fill="#f8fbff"/>
  <rect x="190" y="170" width="100" height="160" rx="24" fill="url(#rise6)"/>
  <rect x="320" y="150" width="100" height="180" rx="24" fill="url(#rise6)"/>
  <rect x="450" y="130" width="100" height="200" rx="24" fill="url(#rise6)"/>
  <rect x="580" y="190" width="100" height="140" rx="24" fill="url(#rise6)"/>
  <circle cx="240" cy="160" r="16" fill="#f4f9ff"/>
  <circle cx="370" cy="140" r="16" fill="#f4f9ff"/>
  <circle cx="500" cy="120" r="16" fill="#f4f9ff"/>
  <circle cx="640" cy="200" r="16" fill="#f4f9ff"/>
  <rect x="240" y="90" width="320" height="120" rx="28" fill="#eef5ff" opacity="0.95"/>
  <text x="400" y="155" font-family="Inter, Arial, sans-serif" font-size="36" fill="#12385f" text-anchor="middle">RISE</text>
  <text x="400" y="188" font-family="Inter, Arial, sans-serif" font-size="18" fill="#315a8f" text-anchor="middle">Responsible, Inclusive, Sustainable, Enabling</text>
  <path d="M170 300 C250 240 340 310 430 260 C520 210 610 310 690 270" fill="none" stroke="#7097d9" stroke-width="14" stroke-linecap="round" opacity="0.82"/>
</svg>
