<svg width="800" height="450" viewBox="0 0 800 450" xmlns="http://www.w3.org/2000/svg">
  <defs>
    <linearGradient id="bg9" x1="0" y1="0" x2="1" y2="1">
      <stop offset="0%" stop-color="#e9f1ff"/>
      <stop offset="100%" stop-color="#c4d7ff"/>
    </linearGradient>
    <linearGradient id="summit9" x1="0" y1="0" x2="0" y2="1">
      <stop offset="0%" stop-color="#1f5ca9"/>
      <stop offset="100%" stop-color="#5d8fe1"/>
    </linearGradient>
  </defs>
  <rect width="800" height="450" rx="34" fill="url(#bg9)"/>
  <rect x="130" y="110" width="540" height="240" rx="32" fill="#f7fbff"/>
  <rect x="220" y="170" width="120" height="140" rx="28" fill="url(#summit9)"/>
  <rect x="360" y="150" width="120" height="160" rx="28" fill="url(#summit9)"/>
  <rect x="500" y="190" width="120" height="120" rx="28" fill="url(#summit9)"/>
  <circle cx="280" cy="190" r="16" fill="#ffffff"/>
  <circle cx="420" cy="170" r="16" fill="#ffffff"/>
  <circle cx="560" cy="210" r="16" fill="#ffffff"/>
  <rect x="260" y="280" width="280" height="50" rx="25" fill="#dae5ff"/>
  <path d="M280 280 L320 240 L360 280" stroke="#ffffff" stroke-width="12" fill="none" stroke-linecap="round" stroke-linejoin="round"/>
  <path d="M420 280 L460 240 L500 280" stroke="#ffffff" stroke-width="12" fill="none" stroke-linecap="round" stroke-linejoin="round"/>
  <text x="400" y="225" font-family="Inter, Arial, sans-serif" font-size="30" fill="#102d5a" text-anchor="middle">Summit</text>
  <text x="400" y="255" font-family="Inter, Arial, sans-serif" font-size="16" fill="#264e81" text-anchor="middle">Collaboration for sustainable innovation</text>
</svg>
